<svg width="282" xmlns="http://www.w3.org/2000/svg" height="282" id="screenshot-ab460cc1-419a-80a8-8006-2466048445eb" viewBox="0 0 282 282" xmlns:xlink="http://www.w3.org/1999/xlink" fill="none" version="1.1"><g id="shape-ab460cc1-419a-80a8-8006-2466048445eb" rx="0" ry="0"><g id="shape-ab460cc1-419a-80a8-8006-2465e88042b6"><g class="fills" id="fills-ab460cc1-419a-80a8-8006-2465e88042b6"><ellipse cx="141.5" cy="140.5" rx="125.5" ry="125.5" transform="matrix(1.000000, 0.000000, 0.000000, 1.000000, 0.000000, 0.000000)" style="fill: rgb(255, 255, 255); fill-opacity: 1;"/></g></g><g id="shape-ab460cc1-419a-80a8-8006-24632d164da2"><g class="fills" id="fills-ab460cc1-419a-80a8-8006-24632d164da2"><rect rx="0" ry="0" x="72.99999999999955" y="220" transform="matrix(1.000000, 0.000000, 0.000000, 1.000000, 0.000000, 0.000000)" width="40" height="40" style="fill: rgb(16, 65, 101); fill-opacity: 1;"/></g></g><g id="shape-ab460cc1-419a-80a8-8006-246356e2396e"><g class="fills" id="fills-ab460cc1-419a-80a8-8006-246356e2396e"><rect rx="0" ry="0" x="113" y="195" transform="matrix(1.000000, 0.000000, 0.000000, 1.000000, 0.000000, 0.000000)" width="40" height="66" style="fill: rgb(24, 94, 139); fill-opacity: 1;"/></g></g><g id="shape-ab460cc1-419a-80a8-8006-24635f657542"><g class="fills" id="fills-ab460cc1-419a-80a8-8006-24635f657542"><rect rx="0" ry="0" x="153" y="166" transform="matrix(1.000000, 0.000000, 0.000000, 1.000000, 0.000000, 0.000000)" width="40" height="94" style="fill: rgb(34, 117, 159); fill-opacity: 1;"/></g></g><g id="shape-ab460cc1-419a-80a8-8006-24636201e05d"><g class="fills" id="fills-ab460cc1-419a-80a8-8006-24636201e05d"><rect rx="0" ry="0" x="193" y="130" transform="matrix(1.000000, 0.000000, 0.000000, 1.000000, 0.000000, 0.000000)" width="40" height="118" style="fill: rgb(50, 143, 180); fill-opacity: 1;"/></g></g><g id="shape-ab460cc1-419a-80a8-8006-24636af1dbce"><g class="fills" id="fills-ab460cc1-419a-80a8-8006-24636af1dbce"><rect rx="0" ry="0" x="232.99999999999955" y="75" transform="matrix(1.000000, 0.000000, 0.000000, 1.000000, 0.000000, 0.000000)" width="27" height="140" style="fill: rgb(96, 191, 213); fill-opacity: 1;"/></g></g><g id="shape-ab460cc1-419a-80a8-8006-24628a4e52df"><g class="fills" id="fills-ab460cc1-419a-80a8-8006-24628a4e52df"><ellipse cx="141" cy="141" rx="141" ry="141" transform="matrix(1.000000, 0.000000, 0.000000, 1.000000, 0.000000, 0.000000)"/></g><g id="strokes-1765e06f-95d6-803d-8006-24661a2845e1-ab460cc1-419a-80a8-8006-24628a4e52df" class="strokes"><g class="inner-stroke-shape" transform="matrix(1.000000, 0.000000, 0.000000, 1.000000, 0.000000, 0.000000)"><defs><clipPath id="inner-stroke-render-8-ab460cc1-419a-80a8-8006-24628a4e52df-0"><use href="#stroke-shape-render-8-ab460cc1-419a-80a8-8006-24628a4e52df-0"/></clipPath><ellipse cx="141" cy="141" rx="141" ry="141" id="stroke-shape-render-8-ab460cc1-419a-80a8-8006-24628a4e52df-0" style="fill: none; stroke-width: 46; stroke: rgb(0, 28, 55); stroke-opacity: 1;"/></defs><use href="#stroke-shape-render-8-ab460cc1-419a-80a8-8006-24628a4e52df-0" clip-path="url('#inner-stroke-render-8-ab460cc1-419a-80a8-8006-24628a4e52df-0')"/></g></g></g><g id="shape-ab460cc1-419a-80a8-8006-24628a4e52e2"><g class="fills" id="fills-ab460cc1-419a-80a8-8006-24628a4e52e2"><rect rx="6" ry="6" x="135" y="18" transform="matrix(1.000000, 0.000000, 0.000000, 1.000000, 0.000000, 0.000000)" width="12" height="31.5" style="fill: rgb(0, 28, 55); fill-opacity: 1;"/></g></g><g id="shape-ab460cc1-419a-80a8-8006-24628a4ea807"><g class="fills" id="fills-ab460cc1-419a-80a8-8006-24628a4ea807"><rect rx="6" ry="6" x="27.75" y="127.25" transform="matrix(0.000000, -1.000000, 1.000000, 0.000000, -109.250000, 176.750000)" width="12" height="31.5" style="fill: rgb(0, 28, 55); fill-opacity: 1;"/></g></g><g id="shape-ab460cc1-419a-80a8-8006-24628a4e52e1"><g class="fills" id="fills-ab460cc1-419a-80a8-8006-24628a4e52e1"><rect rx="10" ry="10" x="105.52802185944074" y="90.03246074071149" transform="matrix(0.614013, -0.789296, 0.789296, 0.614013, -56.857832, 140.797646)" width="20.000000000000455" height="77" style="fill: rgb(0, 28, 55); fill-opacity: 1;"/></g></g><g id="shape-ab460cc1-419a-80a8-8006-24628a4ea808" rx="0" ry="0"><g id="shape-ab460cc1-419a-80a8-8006-24628a4ea809"><g class="fills" id="fills-ab460cc1-419a-80a8-8006-24628a4ea809"><path d="M221.469,62.032L166.669,75.114L187.528,95.973L221.469,62.032Z" style="fill: rgb(0, 28, 55); fill-opacity: 1;"/></g></g><g id="shape-ab460cc1-419a-80a8-8006-24628a4ea80a"><g class="fills" id="fills-ab460cc1-419a-80a8-8006-24628a4ea80a"><path d="M221.469,62.032L208.388,116.833L187.528,95.973L221.469,62.032Z" style="fill: rgb(0, 28, 55); fill-opacity: 1;"/></g></g></g><g id="shape-ab460cc1-419a-80a8-8006-2463e7e76129"><g class="fills" id="fills-ab460cc1-419a-80a8-8006-2463e7e76129"><rect rx="10" ry="10" x="118.30508652763365" y="109.30508652763365" transform="matrix(-0.707107, 0.707107, -0.707107, -0.707107, 366.554870, 86.778175)" width="94.00000000000045" height="20" style="fill: rgb(0, 28, 55); fill-opacity: 1;"/></g></g></g></svg>